[img] http://img38.imageshack.us/img38/9348/86314.jpg[/img]

With: Jason Brooks, Joe Hursley and Clyde Tull

Jack is een jongetje dat weggelopen is van huis. Hij raakt bevriend met Rory, een dakloze Golden Retriever. Samen met Rory weet Jack een bankoverval te stoppen. Net voor Kerstmis worden de twee geadopteerd door een aardig gezin.

Jack is a boy who has run away from home. He befriends Rory, a homeless Golden Retriever. Along with Rory knows Jack to stop a bank robbery. Just before Christmas....

------------------------ Dutch Friends ------------------------
---------------------------------------------------------------
- Bezoek ook eens mijn vrienden op:  http://www.Film-Test.nl --
----- voor mijn Nederlandse Sync. ondertitels ---- en meer ----
------- http://www.Film-Test.nl ---- Over Films en meer -------
---------------------------------------------------------------

General:

Complete name                    : Golden WinterGolden Winter.avi
Format                           : AVI
Format/Info                      : Audio Video Interleave
File size                        : 1.51 GiB
Duration                         : 1h 25mn
Overall bit rate                 : 2 522 Kbps

Video:

Format                           : MPEG-4 Visual
Format profile                   : Simple@L3
Format settings, BVOP            : No
Format settings, QPel            : No
Format settings, GMC             : No warppoints
Format settings, Matrix          : Default (H.263)
Codec ID                         : XVID
Codec ID/Hint                    : XviD
Duration                         : 1h 25mn
Bit rate                         : 2 063 Kbps
Width                            : 704 pixels
Height                           : 396 pixels
Display aspect ratio             : 16:9
Frame rate                       : 25.000 fps
Color space                      : YUV
Chroma subsampling               : 4:2:0
Bit depth                        : 8 bits
Scan type                        : Progressive
Compression mode                 : Lossy
Bits/(Pixel*Frame)               : 0.296
Stream size                      : 1.23 GiB (82%)
Writing library                  : XviD 1.1.2 (UTC 2006-11-01)

Audio:

Format                           : AC-3
Format/Info                      : Audio Coding 3
Mode extension                   : CM (complete main)
Codec ID                         : 2000
Duration                         : 1h 25mn
Bit rate mode                    : Constant
Bit rate                         : 448 Kbps
Channel(s)                       : 6 channels
Channel positions                : Front: L C R, Side: L R, LFE
Sampling rate                    : 48.0 KHz
Bit depth                        : 16 bits
Compression mode                 : Lossy
Stream size                      : 274 MiB (18%)
Alignment                        : Aligned on interleaves
Interleave, duration             : 32 ms (0.80 video frame)
Interleave, preload duration     : 64 ms